<svg id="visual" viewBox="0 0 900 600" width="900" height="600" xmlns="http://www.w3.org/2000/svg" xmlns:xlink="http://www.w3.org/1999/xlink" version="1.1"><g transform="translate(418.3628682157726 200.4948228961693)"><path d="M86.2 -104.5C123.5 -91.6 173.5 -82.1 222.7 -45.3C272 -8.4 320.5 55.7 313.3 109.2C306.2 162.7 243.3 205.5 181.8 260.6C120.3 315.6 60.2 382.8 19.1 356.6C-22 330.3 -44.1 210.7 -93.7 151.8C-143.3 92.9 -220.5 94.8 -243.1 68.7C-265.7 42.6 -233.6 -11.4 -206 -57.8C-178.3 -104.1 -155 -142.7 -121.4 -156.7C-87.8 -170.8 -43.9 -160.4 -9.7 -147.1C24.5 -133.7 49 -117.4 86.2 -104.5" fill="none" stroke="#ffcb05" stroke-width="16"></path></g></svg>