<?xml version="1.0" encoding="UTF-8"?>
<!DOCTYPE svg PUBLIC "-//W3C//DTD SVG 1.1//EN" "http://www.w3.org/Graphics/SVG/1.1/DTD/svg11.dtd">
<!-- Creator: CorelDRAW X8 -->
<svg xmlns="http://www.w3.org/2000/svg" xml:space="preserve" width="67.7332mm" height="67.7332mm" version="1.1" style="shape-rendering:geometricPrecision; text-rendering:geometricPrecision; image-rendering:optimizeQuality; fill-rule:evenodd; clip-rule:evenodd"
viewBox="0 0 6773 6773"
 xmlns:xlink="http://www.w3.org/1999/xlink">
 <defs>
  <style type="text/css">
   <![CDATA[
    .fil1 {fill:#FEFEFE}
    .fil0 {fill:#FECC00}
    .fil3 {fill:#FEFEFE;fill-rule:nonzero}
    .fil2 {fill:#FECC00;fill-rule:nonzero}
   ]]>
  </style>
 </defs>
 <g id="Layer_x0020_1">
  <metadata id="CorelCorpID_0Corel-Layer"/>
  <path class="fil0" d="M5414 3336c78,-18 133,-16 172,6 35,21 57,60 71,120 6,36 6,76 -1,121 -5,38 -16,81 -30,127 -7,30 -36,26 -28,-1 9,-31 13,-58 17,-94 5,-47 5,-93 -2,-120 -9,-41 -27,-70 -53,-87 -27,-19 -65,-25 -115,-21 -16,89 -17,195 0,241 15,42 44,65 75,77 51,21 20,67 -18,62 -52,-8 -90,-40 -110,-99 -13,-38 -18,-84 -15,-138 4,-57 16,-121 37,-194z"/>
  <path class="fil0" d="M5367 3237c-94,15 -172,10 -240,-25 -75,-38 -138,-112 -199,-236 -36,-85 -59,-182 -68,-291 -7,-100 -2,-209 16,-325 12,-75 114,-76 99,18 -13,80 -14,182 -7,280 9,113 29,218 57,281 36,85 80,143 133,180 49,35 106,52 171,55 17,-111 14,-270 -12,-361 -32,-111 -118,-226 -200,-307 -95,-100 -8,-142 35,-111 129,113 204,243 237,390 17,73 22,146 18,223 -4,72 -18,149 -40,229z"/>
  <path class="fil0" d="M5453 3226c37,-109 79,-202 136,-287 55,-83 121,-155 202,-224 48,-38 93,-65 136,-80 25,-9 49,-15 72,-17 36,-9 49,53 -7,58 -21,3 -48,12 -77,25 -45,20 -95,50 -131,82 -55,46 -102,99 -145,159 -43,61 -80,128 -113,205 76,-29 179,-93 237,-147 64,-59 123,-138 172,-213 15,-25 33,-3 26,10 -63,108 -125,189 -205,261 -46,42 -93,76 -141,104 -51,29 -105,50 -162,64z"/>
  <path class="fil0" d="M5327 3352c-36,109 -79,201 -138,290 -61,90 -141,182 -256,293 -75,69 -157,135 -245,196 -68,47 -127,85 -206,130 -33,20 -69,-18 -17,-53 64,-35 140,-84 213,-135 96,-67 188,-138 247,-193 82,-76 145,-147 196,-218 50,-70 90,-143 124,-223 -101,46 -262,149 -361,235 -112,97 -213,216 -295,329 -35,57 -99,14 -58,-35 37,-45 59,-79 97,-123 75,-86 158,-167 247,-239 82,-67 162,-121 240,-164 74,-41 145,-71 212,-90z"/>
  <path class="fil1" d="M4125 3407c30,0 51,-2 63,-8 12,-6 19,-17 19,-34 0,-13 -8,-24 -24,-34 -16,-10 -41,-21 -73,-33 -26,-10 -49,-20 -69,-30 -21,-10 -39,-22 -53,-36 -15,-14 -26,-31 -34,-51 -8,-19 -12,-43 -12,-71 0,-53 20,-96 60,-127 40,-31 95,-47 164,-47 35,0 68,3 100,10 32,6 58,12 77,20l-29 126c-19,-7 -39,-12 -61,-18 -22,-5 -47,-7 -75,-7 -51,0 -76,14 -76,42 0,7 1,13 3,18 3,5 7,10 13,14 7,5 16,10 27,16 11,5 26,11 43,18 36,13 65,26 88,38 23,13 42,27 55,42 14,14 23,31 28,49 6,18 9,39 9,63 0,57 -22,100 -64,129 -43,29 -103,43 -180,43 -51,0 -93,-4 -127,-13 -34,-9 -57,-16 -70,-22l27 -131c28,11 56,19 85,25 29,6 58,9 86,9z"/>
  <path class="fil1" d="M3757 3524l-163 0 0 -432c19,-4 38,-9 57,-15 19,-6 36,-14 52,-24 15,-9 28,-20 39,-33 8,-10 13,-21 15,-33l0 537z"/>
  <path class="fil1" d="M3104 3524c-37,-73 -74,-158 -112,-255 -39,-97 -75,-203 -109,-317l172 0c7,28 16,58 26,91 10,33 20,67 30,101 11,33 21,66 32,98 10,32 21,61 31,87 9,-26 19,-55 30,-87 11,-32 22,-65 32,-98 11,-34 21,-68 31,-101 10,-33 18,-63 25,-91l168 0c-34,114 -70,220 -108,317 -38,97 -76,182 -113,255l-135 0z"/>
  <path class="fil1" d="M2531 2936c47,0 87,6 119,17 32,11 58,26 77,46 19,21 33,45 41,74 8,29 12,62 12,97l0 338c-24,5 -56,11 -97,18 -42,6 -92,10 -150,10 -37,0 -71,-3 -101,-10 -30,-6 -56,-17 -78,-32 -22,-15 -38,-34 -50,-58 -11,-24 -17,-54 -17,-88 0,-34 6,-62 20,-85 13,-23 31,-42 54,-56 22,-14 48,-24 77,-30 29,-6 59,-9 90,-9 21,0 40,1 56,3 17,2 30,4 40,7l0 -15c0,-28 -8,-50 -25,-67 -17,-16 -46,-25 -87,-25 -28,0 -55,2 -82,6 -26,4 -50,10 -69,17l-21 -130c10,-3 21,-6 35,-10 15,-3 30,-6 47,-8 16,-3 34,-5 52,-7 19,-2 38,-3 57,-3zm13 475c16,0 31,-1 45,-1 15,-1 26,-2 35,-4l0 -123c-6,-1 -16,-2 -29,-4 -13,-1 -25,-2 -36,-2 -15,0 -30,1 -43,3 -14,1 -25,5 -36,10 -10,5 -18,12 -23,21 -6,8 -9,19 -9,32 0,26 8,43 25,53 17,10 41,15 71,15z"/>
  <path class="fil1" d="M2186 3095c-15,-3 -32,-7 -52,-11 -19,-4 -40,-6 -63,-6 -10,0 -22,1 -36,2 -14,2 -25,4 -32,6l0 438 -162 0 0 -542c29,-10 63,-20 102,-29 40,-9 84,-13 133,-13 8,0 19,0 31,1 13,1 25,3 37,5 13,1 25,4 37,6 13,3 23,6 32,9l-27 134z"/>
  <path class="fil1" d="M1301 2809l162 -26 0 169 195 0 0 134 -195 0 0 202c0,34 6,61 18,81 12,21 36,31 72,31 18,0 36,-2 54,-5 19,-3 35,-8 51,-14l23 127c-20,8 -42,14 -66,20 -24,6 -53,9 -88,9 -44,0 -81,-6 -110,-18 -29,-12 -52,-29 -69,-50 -18,-21 -30,-47 -37,-78 -7,-30 -10,-64 -10,-101l0 -481z"/>
  <path class="fil2" d="M3757 2922c0,17 -6,31 -16,44 -10,13 -23,24 -39,33 -15,9 -32,17 -51,23 -19,7 -38,12 -57,15l0 -167 163 0 0 52z"/>
  <path class="fil3" d="M3097 3847l-46 -61 -1 0 0 61 -19 0 0 -137c3,0 9,0 17,-1 9,0 15,0 18,0 14,0 26,3 34,9 8,5 12,14 12,27 0,12 -4,21 -11,28 -8,7 -18,11 -31,11l12 14 39 49 -24 0zm-35 -123l-12 0 0 48 12 0c9,0 17,-2 22,-7 6,-4 9,-10 9,-18 0,-8 -3,-14 -8,-17 -5,-4 -12,-6 -23,-6zm117 123l0 -137 71 0 0 15 -52 0 0 44 50 0 0 15 -50 0 0 48 52 0 0 15 -71 0zm223 0l-53 -85c-3,-5 -6,-10 -8,-13 -2,-4 -4,-9 -7,-15 0,1 0,11 0,30 1,18 1,31 1,39l0 44 -18 0 0 -137 24 0 52 82c2,4 4,8 8,14 3,6 6,12 8,17 0,-3 0,-14 0,-33 -1,-19 -1,-33 -1,-41l0 -39 18 0 0 137 -24 0zm139 -121l0 121 -19 0 0 -121 -39 0 0 -16 98 0 0 16 -40 0zm226 121l-12 -32 -59 0 -11 32 -19 0 50 -137 21 0 50 137 -20 0zm-35 -96c-1,-3 -3,-7 -3,-10 -1,-3 -2,-6 -3,-10 -1,3 -2,6 -3,10 -1,3 -3,7 -4,10l-18 49 49 0 -18 -49zm209 98c-21,0 -37,-6 -47,-18 -11,-12 -16,-28 -16,-49 0,-22 6,-40 17,-53 11,-14 28,-20 51,-20 9,0 20,1 31,4l-2 17c-11,-3 -21,-5 -31,-5 -16,0 -27,5 -34,15 -8,10 -11,23 -11,39 0,18 4,31 11,40 8,9 19,13 35,13 6,0 11,0 16,-2 6,-1 11,-2 15,-5l2 17c-5,2 -11,4 -17,5 -6,1 -13,2 -20,2zm185 -2l-12 -32 -58 0 -12 32 -19 0 50 -137 21 0 51 137 -21 0zm-35 -96c-1,-3 -2,-7 -3,-10 -1,-3 -2,-6 -3,-10 -1,3 -2,6 -3,10 -1,3 -2,7 -4,10l-17 49 48 0 -18 -49zm176 96l-46 -61 -1 0 0 61 -19 0 0 -137c3,0 9,0 17,-1 9,0 14,0 18,0 14,0 26,3 34,9 8,5 12,14 12,27 0,12 -4,21 -11,28 -8,7 -18,11 -31,11l12 14 39 49 -24 0zm-35 -123l-12 0 0 48 12 0c9,0 17,-2 22,-7 6,-4 9,-10 9,-18 0,-8 -3,-14 -8,-17 -5,-4 -12,-6 -23,-6z"/>
 </g>
</svg>
